<mxfile host="Electron" modified="2024-04-21T18:54:18.885Z" agent="Mozilla/5.0 (Windows NT 10.0; Win64; x64) AppleWebKit/537.36 (KHTML, like Gecko) draw.io/24.2.5 Chrome/120.0.6099.109 Electron/28.1.0 Safari/537.36" etag="XAUOtVx0VPMdCuXSuWAt" version="24.2.5" type="device">
  <diagram name="Page-1" id="2KkPdRFUcKXrVxvmrppy">
    <mxGraphModel dx="3318" dy="208" grid="0" gridSize="10" guides="1" tooltips="1" connect="1" arrows="1" fold="1" page="0" pageScale="1" pageWidth="827" pageHeight="1169" math="0" shadow="0">
      <root>
        <mxCell id="0" />
        <mxCell id="1" parent="0" />
        <mxCell id="ZiL3H2gjiar3ugQNmTWt-1" value="&lt;b&gt;Send appointment reminders&lt;/b&gt;" style="shape=parallelogram;perimeter=parallelogramPerimeter;whiteSpace=wrap;html=1;fixedSize=1;fillColor=#dae8fc;strokeColor=#000000;fontFamily=Helvetica;fontSize=11;fontColor=default;labelBackgroundColor=none;" parent="1" vertex="1">
          <mxGeometry x="-1831" y="454" width="207" height="29" as="geometry" />
        </mxCell>
        <mxCell id="OLm0kuhL1v_9EKyyIQj--1" value="&lt;b&gt;Appointment details provided&lt;/b&gt;" style="shape=parallelogram;perimeter=parallelogramPerimeter;whiteSpace=wrap;html=1;fixedSize=1;fillColor=#FFD966;strokeColor=#000000;strokeWidth=3;fontFamily=Helvetica;fontSize=11;fontColor=default;labelBackgroundColor=none;" parent="1" vertex="1">
          <mxGeometry x="-2109" y="568" width="150" height="50" as="geometry" />
        </mxCell>
        <mxCell id="OLm0kuhL1v_9EKyyIQj--2" value="" style="ellipse;whiteSpace=wrap;html=1;aspect=fixed;fillColor=#FFD966;strokeWidth=2;" parent="1" vertex="1">
          <mxGeometry x="-1740" y="511" width="25" height="25" as="geometry" />
        </mxCell>
        <mxCell id="OLm0kuhL1v_9EKyyIQj--3" value="" style="endArrow=block;html=1;rounded=0;endFill=1;strokeWidth=2;" parent="1" source="OLm0kuhL1v_9EKyyIQj--2" target="ZiL3H2gjiar3ugQNmTWt-1" edge="1">
          <mxGeometry width="50" height="50" relative="1" as="geometry">
            <mxPoint x="-1727.504815076529" y="541.9718581716346" as="sourcePoint" />
            <mxPoint x="-1817.2422969187676" y="386" as="targetPoint" />
          </mxGeometry>
        </mxCell>
        <mxCell id="OLm0kuhL1v_9EKyyIQj--4" value="" style="endArrow=none;html=1;rounded=0;strokeWidth=2;" parent="1" source="OLm0kuhL1v_9EKyyIQj--1" target="OLm0kuhL1v_9EKyyIQj--2" edge="1">
          <mxGeometry width="50" height="50" relative="1" as="geometry">
            <mxPoint x="-2001" y="450" as="sourcePoint" />
            <mxPoint x="-1703.5" y="540" as="targetPoint" />
          </mxGeometry>
        </mxCell>
        <mxCell id="OLm0kuhL1v_9EKyyIQj--5" value="" style="group;fontFamily=Helvetica;fontSize=11;fontColor=default;labelBackgroundColor=default;" parent="1" vertex="1" connectable="0">
          <mxGeometry x="-2106" y="696" width="144" height="40" as="geometry" />
        </mxCell>
        <mxCell id="OLm0kuhL1v_9EKyyIQj--6" value="&lt;div&gt;&lt;b&gt;Patient&lt;/b&gt;&lt;/div&gt;" style="shape=hexagon;perimeter=hexagonPerimeter2;whiteSpace=wrap;html=1;fixedSize=1;fillColor=#FFF2CC;fontFamily=Helvetica;fontSize=11;fontColor=default;labelBackgroundColor=none;" parent="OLm0kuhL1v_9EKyyIQj--5" vertex="1">
          <mxGeometry width="144" height="40" as="geometry" />
        </mxCell>
        <mxCell id="OLm0kuhL1v_9EKyyIQj--7" value="" style="shape=umlActor;verticalLabelPosition=bottom;verticalAlign=top;html=1;outlineConnect=0;fillColor=none;strokeWidth=2;fontFamily=Helvetica;fontSize=11;fontColor=default;labelBackgroundColor=default;" parent="OLm0kuhL1v_9EKyyIQj--5" vertex="1">
          <mxGeometry x="10.57627118644068" y="7.75" width="7.322033898305086" height="24.5" as="geometry" />
        </mxCell>
        <mxCell id="OLm0kuhL1v_9EKyyIQj--8" value="" style="ellipse;whiteSpace=wrap;html=1;aspect=fixed;fillColor=#FAADFF;strokeWidth=2;fontFamily=Helvetica;fontSize=11;fontColor=default;labelBackgroundColor=default;" parent="1" vertex="1">
          <mxGeometry x="-2048" y="643" width="28" height="28" as="geometry" />
        </mxCell>
        <mxCell id="OLm0kuhL1v_9EKyyIQj--9" value="" style="endArrow=block;html=1;rounded=0;endFill=1;strokeWidth=2;strokeColor=default;align=center;verticalAlign=middle;fontFamily=Helvetica;fontSize=11;fontColor=default;labelBackgroundColor=default;" parent="1" source="OLm0kuhL1v_9EKyyIQj--8" target="OLm0kuhL1v_9EKyyIQj--1" edge="1">
          <mxGeometry width="50" height="50" relative="1" as="geometry">
            <mxPoint x="-1601.004815076529" y="665.9718581716346" as="sourcePoint" />
            <mxPoint x="-1605" y="621" as="targetPoint" />
          </mxGeometry>
        </mxCell>
        <mxCell id="OLm0kuhL1v_9EKyyIQj--10" value="" style="endArrow=none;html=1;rounded=0;strokeWidth=2;strokeColor=default;align=center;verticalAlign=middle;fontFamily=Helvetica;fontSize=11;fontColor=default;labelBackgroundColor=default;" parent="1" source="OLm0kuhL1v_9EKyyIQj--6" target="OLm0kuhL1v_9EKyyIQj--8" edge="1">
          <mxGeometry width="50" height="50" relative="1" as="geometry">
            <mxPoint x="-1602" y="728" as="sourcePoint" />
            <mxPoint x="-1577" y="664" as="targetPoint" />
          </mxGeometry>
        </mxCell>
        <mxCell id="OLm0kuhL1v_9EKyyIQj--11" value="&lt;b&gt;Notify patient&lt;/b&gt;" style="shape=parallelogram;perimeter=parallelogramPerimeter;whiteSpace=wrap;html=1;fixedSize=1;fillColor=#dae8fc;strokeColor=#000000;strokeWidth=3;fontFamily=Helvetica;fontSize=11;fontColor=default;labelBackgroundColor=none;" parent="1" vertex="1">
          <mxGeometry x="-1713" y="570" width="179" height="46" as="geometry" />
        </mxCell>
        <mxCell id="OLm0kuhL1v_9EKyyIQj--14" value="" style="endArrow=none;html=1;rounded=0;strokeWidth=2;entryX=1;entryY=1;entryDx=0;entryDy=0;" parent="1" source="OLm0kuhL1v_9EKyyIQj--11" target="OLm0kuhL1v_9EKyyIQj--2" edge="1">
          <mxGeometry width="50" height="50" relative="1" as="geometry">
            <mxPoint x="-1829" y="589" as="sourcePoint" />
            <mxPoint x="-1726" y="551" as="targetPoint" />
          </mxGeometry>
        </mxCell>
        <mxCell id="OLm0kuhL1v_9EKyyIQj--15" value="Doctor cancelled appointment" style="shape=parallelogram;perimeter=parallelogramPerimeter;whiteSpace=wrap;html=1;fixedSize=1;fillColor=#FFA070;fontStyle=1;fontFamily=Helvetica;fontSize=11;fontColor=default;labelBackgroundColor=none;flipH=1;flipV=0;" parent="1" vertex="1">
          <mxGeometry x="-1608" y="680" width="193" height="42" as="geometry" />
        </mxCell>
        <mxCell id="OLm0kuhL1v_9EKyyIQj--23" value="" style="endArrow=block;html=1;rounded=0;endFill=1;strokeWidth=2;" parent="1" source="OLm0kuhL1v_9EKyyIQj--25" edge="1" target="OLm0kuhL1v_9EKyyIQj--11">
          <mxGeometry width="50" height="50" relative="1" as="geometry">
            <mxPoint x="-1432.5" y="723" as="sourcePoint" />
            <mxPoint x="-1520.5" y="721" as="targetPoint" />
          </mxGeometry>
        </mxCell>
        <mxCell id="OLm0kuhL1v_9EKyyIQj--24" value="" style="endArrow=none;html=1;rounded=0;strokeWidth=2;" parent="1" target="OLm0kuhL1v_9EKyyIQj--25" edge="1" source="OLm0kuhL1v_9EKyyIQj--15">
          <mxGeometry width="50" height="50" relative="1" as="geometry">
            <mxPoint x="-1520.5" y="804" as="sourcePoint" />
            <mxPoint x="-1442.255851087944" y="757.9978709578809" as="targetPoint" />
          </mxGeometry>
        </mxCell>
        <mxCell id="OLm0kuhL1v_9EKyyIQj--25" value="" style="triangle;whiteSpace=wrap;html=1;rotation=-90;fillColor=#FFA070;" parent="1" vertex="1">
          <mxGeometry x="-1573" y="635" width="27" height="25" as="geometry" />
        </mxCell>
        <mxCell id="OLm0kuhL1v_9EKyyIQj--27" value="&lt;div&gt;&lt;b&gt;Message controller&lt;/b&gt;&lt;/div&gt;" style="shape=hexagon;perimeter=hexagonPerimeter2;whiteSpace=wrap;html=1;fixedSize=1;fillColor=#FFF2CC;fontFamily=Helvetica;fontSize=11;fontColor=default;labelBackgroundColor=none;" parent="1" vertex="1">
          <mxGeometry x="-1771" y="792" width="166" height="40" as="geometry" />
        </mxCell>
        <mxCell id="OLm0kuhL1v_9EKyyIQj--28" value="" style="ellipse;whiteSpace=wrap;html=1;aspect=fixed;fillColor=#FF0000;strokeWidth=2;" parent="1" vertex="1">
          <mxGeometry x="-1690" y="660" width="28" height="28" as="geometry" />
        </mxCell>
        <mxCell id="OLm0kuhL1v_9EKyyIQj--29" value="" style="endArrow=block;html=1;rounded=0;endFill=1;strokeWidth=2;" parent="1" source="OLm0kuhL1v_9EKyyIQj--28" edge="1" target="OLm0kuhL1v_9EKyyIQj--11">
          <mxGeometry width="50" height="50" relative="1" as="geometry">
            <mxPoint x="-1706.004815076529" y="769.9718581716346" as="sourcePoint" />
            <mxPoint x="-1699.8088235294117" y="718.5" as="targetPoint" />
            <Array as="points" />
          </mxGeometry>
        </mxCell>
        <mxCell id="OLm0kuhL1v_9EKyyIQj--30" value="" style="endArrow=none;html=1;rounded=0;strokeWidth=2;" parent="1" source="OLm0kuhL1v_9EKyyIQj--27" target="OLm0kuhL1v_9EKyyIQj--28" edge="1">
          <mxGeometry width="50" height="50" relative="1" as="geometry">
            <mxPoint x="-1707" y="832" as="sourcePoint" />
            <mxPoint x="-1682" y="768" as="targetPoint" />
          </mxGeometry>
        </mxCell>
        <mxCell id="5D5uf4szvGfp58HOz8Ib-1" value="&lt;b&gt;Generate reminders&lt;/b&gt;" style="shape=parallelogram;perimeter=parallelogramPerimeter;whiteSpace=wrap;html=1;fixedSize=1;fillColor=#dae8fc;strokeColor=#000000;strokeWidth=3;fontFamily=Helvetica;fontSize=11;fontColor=default;labelBackgroundColor=none;" vertex="1" parent="1">
          <mxGeometry x="-1923" y="570" width="167" height="46" as="geometry" />
        </mxCell>
        <mxCell id="5D5uf4szvGfp58HOz8Ib-2" value="" style="endArrow=none;html=1;rounded=0;strokeWidth=2;entryX=0;entryY=1;entryDx=0;entryDy=0;" edge="1" parent="1" source="5D5uf4szvGfp58HOz8Ib-1" target="OLm0kuhL1v_9EKyyIQj--2">
          <mxGeometry width="50" height="50" relative="1" as="geometry">
            <mxPoint x="-1955" y="593" as="sourcePoint" />
            <mxPoint x="-1733" y="560" as="targetPoint" />
          </mxGeometry>
        </mxCell>
        <mxCell id="5D5uf4szvGfp58HOz8Ib-3" value="&lt;div&gt;&lt;b&gt;Appointments controller&lt;/b&gt;&lt;/div&gt;" style="shape=hexagon;perimeter=hexagonPerimeter2;whiteSpace=wrap;html=1;fixedSize=1;fillColor=#FFF2CC;fontFamily=Helvetica;fontSize=11;fontColor=default;labelBackgroundColor=none;" vertex="1" parent="1">
          <mxGeometry x="-1943" y="696" width="166" height="40" as="geometry" />
        </mxCell>
        <mxCell id="5D5uf4szvGfp58HOz8Ib-4" value="" style="ellipse;whiteSpace=wrap;html=1;aspect=fixed;fillColor=#FF0000;strokeWidth=2;" vertex="1" parent="1">
          <mxGeometry x="-1856" y="635" width="28" height="28" as="geometry" />
        </mxCell>
        <mxCell id="5D5uf4szvGfp58HOz8Ib-5" value="" style="endArrow=block;html=1;rounded=0;endFill=1;strokeWidth=2;" edge="1" source="5D5uf4szvGfp58HOz8Ib-4" parent="1" target="5D5uf4szvGfp58HOz8Ib-1">
          <mxGeometry width="50" height="50" relative="1" as="geometry">
            <mxPoint x="-1709.004815076529" y="763.9718581716346" as="sourcePoint" />
            <mxPoint x="-1713" y="719" as="targetPoint" />
          </mxGeometry>
        </mxCell>
        <mxCell id="5D5uf4szvGfp58HOz8Ib-6" value="" style="endArrow=none;html=1;rounded=0;strokeWidth=2;" edge="1" target="5D5uf4szvGfp58HOz8Ib-4" parent="1" source="5D5uf4szvGfp58HOz8Ib-3">
          <mxGeometry width="50" height="50" relative="1" as="geometry">
            <mxPoint x="-1710" y="826" as="sourcePoint" />
            <mxPoint x="-1685" y="762" as="targetPoint" />
          </mxGeometry>
        </mxCell>
        <mxCell id="5D5uf4szvGfp58HOz8Ib-7" value="" style="endArrow=block;html=1;rounded=0;endFill=1;strokeWidth=2;" edge="1" source="5D5uf4szvGfp58HOz8Ib-9" parent="1" target="OLm0kuhL1v_9EKyyIQj--15">
          <mxGeometry width="50" height="50" relative="1" as="geometry">
            <mxPoint x="-1546.5" y="761" as="sourcePoint" />
            <mxPoint x="-1634.5" y="759" as="targetPoint" />
          </mxGeometry>
        </mxCell>
        <mxCell id="5D5uf4szvGfp58HOz8Ib-8" value="" style="endArrow=none;html=1;rounded=0;strokeWidth=2;" edge="1" target="5D5uf4szvGfp58HOz8Ib-9" parent="1" source="OLm0kuhL1v_9EKyyIQj--27">
          <mxGeometry width="50" height="50" relative="1" as="geometry">
            <mxPoint x="-1634.5" y="842" as="sourcePoint" />
            <mxPoint x="-1556.255851087944" y="795.9978709578809" as="targetPoint" />
          </mxGeometry>
        </mxCell>
        <mxCell id="5D5uf4szvGfp58HOz8Ib-9" value="" style="triangle;whiteSpace=wrap;html=1;rotation=-90;fillColor=#00994D;" vertex="1" parent="1">
          <mxGeometry x="-1589" y="742" width="27" height="25" as="geometry" />
        </mxCell>
      </root>
    </mxGraphModel>
  </diagram>
</mxfile>
